<svg width="228" height="24" viewBox="0 0 228 24" fill="none" xmlns="http://www.w3.org/2000/svg">
<path d="M19.083 0.5C20.626 0.871094 21.7734 1.48145 22.5254 2.33105C23.2871 3.18066 23.668 4.32324 23.668 5.75879C23.668 6.71582 23.5654 7.52148 23.3604 8.17578C23.1553 8.82031 22.8965 9.35742 22.584 9.78711C22.2715 10.207 21.9297 10.5342 21.5586 10.7686C21.1973 10.9932 20.8604 11.1592 20.5479 11.2666C20.2354 11.374 19.9668 11.4375 19.7422 11.457C19.5273 11.4766 19.415 11.4863 19.4053 11.4863C19.7861 11.5059 20.1914 11.5498 20.6211 11.6182C21.0605 11.6865 21.4951 11.7939 21.9248 11.9404C22.3545 12.0869 22.7646 12.2773 23.1553 12.5117C23.5459 12.7461 23.8877 13.0391 24.1807 13.3906C24.4834 13.7324 24.7227 14.1426 24.8984 14.6211C25.0742 15.0996 25.1621 15.6514 25.1621 16.2764C25.1621 17.2334 25.04 18.1221 24.7959 18.9424C24.5615 19.7627 24.1416 20.4756 23.5361 21.0811C22.9404 21.6768 22.125 22.1455 21.0898 22.4873C20.0547 22.8291 18.7461 23 17.1641 23H0.157227V16.6426L2.03223 16.2764V6.68164L0.157227 6.31543V0.5H19.083ZM15.7871 7.70703C15.7871 7.20898 15.6992 6.82812 15.5234 6.56445C15.3574 6.29102 15.1328 6.09082 14.8496 5.96387C14.5664 5.83691 14.2441 5.76367 13.8828 5.74414C13.5215 5.72461 13.1553 5.71484 12.7842 5.71484H11.4072V9.91895H12.7842C13.1553 9.91895 13.5215 9.90918 13.8828 9.88965C14.2441 9.86035 14.5664 9.77734 14.8496 9.64062C15.1328 9.50391 15.3574 9.28906 15.5234 8.99609C15.6992 8.69336 15.7871 8.26367 15.7871 7.70703ZM15.7871 15.0166C15.7871 14.5186 15.6992 14.1377 15.5234 13.874C15.3574 13.6104 15.1328 13.415 14.8496 13.2881C14.5664 13.1611 14.2441 13.0879 13.8828 13.0684C13.5215 13.0488 13.1553 13.0391 12.7842 13.0391H11.4072V17.2432H12.7842C13.1553 17.2432 13.5215 17.2334 13.8828 17.2139C14.2441 17.1846 14.5664 17.1016 14.8496 16.9648C15.1328 16.8281 15.3574 16.6084 15.5234 16.3057C15.6992 16.0029 15.7871 15.5732 15.7871 15.0166ZM50.1523 23H41.3926C41.1191 22.4922 40.8359 21.9551 40.543 21.3887C40.25 20.8125 39.9668 20.2119 39.6934 19.5869C39.4199 18.9619 39.1611 18.3174 38.917 17.6533C38.6826 16.9893 38.4824 16.3057 38.3164 15.6025H37.833V23H27.2568V17.1553L29.0146 16.8184V8.4834L27.2568 8.14648V2.375H39.2539C40.8457 2.375 42.2178 2.44336 43.3701 2.58008C44.5322 2.7168 45.5137 2.91699 46.3145 3.18066C47.125 3.44434 47.7793 3.7666 48.2773 4.14746C48.7754 4.51855 49.1611 4.94336 49.4346 5.42188C49.7178 5.89062 49.9082 6.4082 50.0059 6.97461C50.1035 7.54102 50.1523 8.1416 50.1523 8.77637C50.1523 9.4209 50.0889 10.0068 49.9619 10.5342C49.8447 11.0615 49.6299 11.5449 49.3174 11.9844C49.0049 12.4238 48.5752 12.8291 48.0283 13.2002C47.4912 13.5615 46.8027 13.9033 45.9629 14.2256C46.1387 14.5771 46.3975 14.9971 46.7393 15.4854C47.0908 15.9639 47.4717 16.457 47.8818 16.9648C48.292 17.4629 48.6973 17.9463 49.0977 18.415C49.5078 18.8838 49.8594 19.2842 50.1523 19.6162V23ZM37.833 11.6328C38.3701 11.6328 38.8535 11.6084 39.2832 11.5596C39.7227 11.501 40.0938 11.3838 40.3965 11.208C40.709 11.0225 40.9482 10.7539 41.1143 10.4023C41.2803 10.0508 41.3633 9.57715 41.3633 8.98145C41.3633 8.39551 41.2803 7.92676 41.1143 7.5752C40.9482 7.22363 40.709 6.95508 40.3965 6.76953C40.0938 6.57422 39.7227 6.44727 39.2832 6.38867C38.8535 6.33008 38.3701 6.30078 37.833 6.30078V11.6328ZM64.2588 23.2637C62.54 23.2637 60.9287 23.083 59.4248 22.7217C57.9307 22.3506 56.627 21.7207 55.5137 20.832C54.4102 19.9336 53.5361 18.791 52.8916 17.4043C52.2568 16.0176 51.9395 14.3525 51.9395 12.4092C51.9395 10.5049 52.2568 8.88379 52.8916 7.5459C53.5361 6.19824 54.415 5.10449 55.5283 4.26465C56.6416 3.41504 57.9453 2.79492 59.4395 2.4043C60.9336 2.01367 62.54 1.81836 64.2588 1.81836C65.9678 1.81836 67.5693 2.01367 69.0635 2.4043C70.5674 2.79492 71.876 3.41504 72.9893 4.26465C74.1123 5.10449 74.9961 6.19824 75.6406 7.5459C76.2852 8.88379 76.6074 10.5049 76.6074 12.4092C76.6074 13.6982 76.4609 14.8701 76.168 15.9248C75.875 16.9697 75.46 17.9023 74.9229 18.7227C74.3955 19.5332 73.7559 20.2363 73.0039 20.832C72.2617 21.418 71.4316 21.9062 70.5137 22.2969C69.5957 22.6777 68.6094 22.9316 67.5547 23.0586C66.5 23.1953 65.4014 23.2637 64.2588 23.2637ZM64.2588 8.05859C63.6826 8.05859 63.1943 8.13184 62.7939 8.27832C62.4033 8.4248 62.0762 8.61523 61.8125 8.84961C61.5586 9.08398 61.3584 9.35254 61.2119 9.65527C61.0654 9.95801 60.958 10.2705 60.8896 10.5928C60.8311 10.9053 60.792 11.2178 60.7725 11.5303C60.7627 11.833 60.7578 12.1016 60.7578 12.3359C60.7578 12.5605 60.7627 12.8291 60.7725 13.1416C60.7822 13.4443 60.8164 13.7666 60.875 14.1084C60.9336 14.4404 61.0312 14.7725 61.168 15.1045C61.3047 15.4365 61.5 15.7344 61.7539 15.998C62.0176 16.2617 62.3496 16.4766 62.75 16.6426C63.1602 16.7988 63.6631 16.877 64.2588 16.877C64.8447 16.877 65.3379 16.7988 65.7383 16.6426C66.1484 16.4863 66.4805 16.2812 66.7344 16.0273C66.998 15.7637 67.2031 15.4707 67.3496 15.1484C67.4961 14.8262 67.5986 14.5039 67.6572 14.1816C67.7256 13.8496 67.7646 13.5273 67.7744 13.2148C67.7939 12.9023 67.8037 12.6338 67.8037 12.4092C67.8037 12.1748 67.7939 11.9062 67.7744 11.6035C67.7646 11.291 67.7256 10.9736 67.6572 10.6514C67.5986 10.3291 67.4961 10.0166 67.3496 9.71387C67.2031 9.40137 66.998 9.12305 66.7344 8.87891C66.4805 8.63477 66.1484 8.43945 65.7383 8.29297C65.3379 8.13672 64.8447 8.05859 64.2588 8.05859ZM103.062 23H93.1748L89.2783 14.3574V23H78.7021V17.1553L80.46 16.8184V8.4834L78.7021 8.14648V2.375H89.2783V10.6074L93.1748 2.375H102.667V6.0957C102.091 6.58398 101.554 7.09668 101.056 7.63379C100.567 8.1709 100.108 8.71289 99.6787 9.25977C99.249 9.80664 98.8535 10.3438 98.4922 10.8711C98.1309 11.3984 97.8037 11.9014 97.5107 12.3799C97.8916 12.9854 98.2969 13.6201 98.7266 14.2842C99.1562 14.9385 99.6006 15.5977 100.06 16.2617C100.528 16.9258 101.012 17.5801 101.51 18.2246C102.018 18.8594 102.535 19.4551 103.062 20.0117V23ZM115.162 11.4424L119.22 10.5781V14.7529L115.162 13.874V17.1113C115.748 17.1113 116.314 17.0723 116.861 16.9941C117.408 16.9062 117.916 16.7891 118.385 16.6426C118.854 16.4961 119.283 16.3252 119.674 16.1299C120.064 15.9346 120.401 15.7246 120.685 15.5H122.691V23H104.586V17.1553L106.344 16.8184V8.5127L104.586 8.17578V2.375H122.691V9.875H120.685C120.401 9.66016 120.064 9.45508 119.674 9.25977C119.283 9.06445 118.854 8.89355 118.385 8.74707C117.916 8.60059 117.408 8.4834 116.861 8.39551C116.314 8.30762 115.748 8.26367 115.162 8.26367V11.4424ZM147.945 23H139.186C138.912 22.4922 138.629 21.9551 138.336 21.3887C138.043 20.8125 137.76 20.2119 137.486 19.5869C137.213 18.9619 136.954 18.3174 136.71 17.6533C136.476 16.9893 136.275 16.3057 136.109 15.6025H135.626V23H125.05V17.1553L126.808 16.8184V8.4834L125.05 8.14648V2.375H137.047C138.639 2.375 140.011 2.44336 141.163 2.58008C142.325 2.7168 143.307 2.91699 144.107 3.18066C144.918 3.44434 145.572 3.7666 146.07 4.14746C146.568 4.51855 146.954 4.94336 147.228 5.42188C147.511 5.89062 147.701 6.4082 147.799 6.97461C147.896 7.54102 147.945 8.1416 147.945 8.77637C147.945 9.4209 147.882 10.0068 147.755 10.5342C147.638 11.0615 147.423 11.5449 147.11 11.9844C146.798 12.4238 146.368 12.8291 145.821 13.2002C145.284 13.5615 144.596 13.9033 143.756 14.2256C143.932 14.5771 144.19 14.9971 144.532 15.4854C144.884 15.9639 145.265 16.457 145.675 16.9648C146.085 17.4629 146.49 17.9463 146.891 18.415C147.301 18.8838 147.652 19.2842 147.945 19.6162V23ZM135.626 11.6328C136.163 11.6328 136.646 11.6084 137.076 11.5596C137.516 11.501 137.887 11.3838 138.189 11.208C138.502 11.0225 138.741 10.7539 138.907 10.4023C139.073 10.0508 139.156 9.57715 139.156 8.98145C139.156 8.39551 139.073 7.92676 138.907 7.5752C138.741 7.22363 138.502 6.95508 138.189 6.76953C137.887 6.57422 137.516 6.44727 137.076 6.38867C136.646 6.33008 136.163 6.30078 135.626 6.30078V11.6328ZM160.982 17.375C161.393 17.375 161.783 17.3213 162.154 17.2139C162.525 17.0967 162.867 16.9502 163.18 16.7744C163.502 16.5889 163.79 16.3887 164.044 16.1738C164.308 15.9492 164.537 15.7246 164.732 15.5H167.179V23H150.421V17.1553L152.179 16.8184V8.4834L150.421 8.14648V2.375H162.755V8.14648L160.982 8.4834V17.375ZM179.732 11.4424L183.79 10.5781V14.7529L179.732 13.874V17.1113C180.318 17.1113 180.885 17.0723 181.432 16.9941C181.979 16.9062 182.486 16.7891 182.955 16.6426C183.424 16.4961 183.854 16.3252 184.244 16.1299C184.635 15.9346 184.972 15.7246 185.255 15.5H187.262V23H169.156V17.1553L170.914 16.8184V8.5127L169.156 8.17578V2.375H187.262V9.875H185.255C184.972 9.66016 184.635 9.45508 184.244 9.25977C183.854 9.06445 183.424 8.89355 182.955 8.74707C182.486 8.60059 181.979 8.4834 181.432 8.39551C180.885 8.30762 180.318 8.26367 179.732 8.26367V11.4424ZM207.564 16.5107C207.564 17.4189 207.433 18.2246 207.169 18.9277C206.915 19.6211 206.563 20.2266 206.114 20.7441C205.675 21.252 205.147 21.6768 204.532 22.0186C203.927 22.3604 203.272 22.6387 202.569 22.8535C201.866 23.0586 201.129 23.1758 200.357 23.2051C199.596 23.2441 198.834 23.2637 198.072 23.2637C197.018 23.2637 196.065 23.2393 195.216 23.1904C194.366 23.1416 193.604 23.0342 192.931 22.8682C192.267 22.7021 191.676 22.5215 191.158 22.3262C190.65 22.1211 190.201 21.9209 189.811 21.7256V16.6426H193.956C194.366 17.2871 194.835 17.7607 195.362 18.0635C195.89 18.3662 196.432 18.5176 196.988 18.5176C197.154 18.5176 197.34 18.5029 197.545 18.4736C197.75 18.4443 197.94 18.3516 198.116 18.1953C198.292 18.0391 198.438 17.7998 198.556 17.4775C198.683 17.1455 198.746 16.6816 198.746 16.0859C197.955 16.0176 197.169 15.9199 196.388 15.793C195.616 15.6562 194.874 15.4756 194.161 15.251C193.458 15.0264 192.804 14.7432 192.198 14.4014C191.593 14.0498 191.065 13.6299 190.616 13.1416C190.177 12.6436 189.83 12.0625 189.576 11.3984C189.322 10.7246 189.195 9.95312 189.195 9.08398C189.195 8.08789 189.322 7.21875 189.576 6.47656C189.83 5.72461 190.177 5.08008 190.616 4.54297C191.056 4.00586 191.573 3.56152 192.169 3.20996C192.774 2.8584 193.424 2.58008 194.117 2.375C194.811 2.16992 195.533 2.02832 196.285 1.9502C197.037 1.8623 197.789 1.81836 198.541 1.81836C199.605 1.81836 200.558 1.87207 201.397 1.97949C202.247 2.08691 203.004 2.22363 203.668 2.38965C204.342 2.55566 204.933 2.74121 205.44 2.94629C205.958 3.1416 206.417 3.33203 206.817 3.51758V8.64453H202.379C202.008 7.94141 201.583 7.42871 201.104 7.10645C200.626 6.78418 200.138 6.62305 199.64 6.62305C199.474 6.62305 199.283 6.65234 199.068 6.71094C198.854 6.75977 198.653 6.87695 198.468 7.0625C198.282 7.24805 198.126 7.52148 197.999 7.88281C197.872 8.24414 197.809 8.73242 197.809 9.34766C199.42 9.40625 200.831 9.57715 202.042 9.86035C203.263 10.1436 204.283 10.5684 205.104 11.1348C205.924 11.6914 206.539 12.4141 206.949 13.3027C207.359 14.1816 207.564 15.251 207.564 16.5107ZM227.896 16.5107C227.896 17.4189 227.765 18.2246 227.501 18.9277C227.247 19.6211 226.896 20.2266 226.446 20.7441C226.007 21.252 225.479 21.6768 224.864 22.0186C224.259 22.3604 223.604 22.6387 222.901 22.8535C222.198 23.0586 221.461 23.1758 220.689 23.2051C219.928 23.2441 219.166 23.2637 218.404 23.2637C217.35 23.2637 216.397 23.2393 215.548 23.1904C214.698 23.1416 213.937 23.0342 213.263 22.8682C212.599 22.7021 212.008 22.5215 211.49 22.3262C210.982 22.1211 210.533 21.9209 210.143 21.7256V16.6426H214.288C214.698 17.2871 215.167 17.7607 215.694 18.0635C216.222 18.3662 216.764 18.5176 217.32 18.5176C217.486 18.5176 217.672 18.5029 217.877 18.4736C218.082 18.4443 218.272 18.3516 218.448 18.1953C218.624 18.0391 218.771 17.7998 218.888 17.4775C219.015 17.1455 219.078 16.6816 219.078 16.0859C218.287 16.0176 217.501 15.9199 216.72 15.793C215.948 15.6562 215.206 15.4756 214.493 15.251C213.79 15.0264 213.136 14.7432 212.53 14.4014C211.925 14.0498 211.397 13.6299 210.948 13.1416C210.509 12.6436 210.162 12.0625 209.908 11.3984C209.654 10.7246 209.527 9.95312 209.527 9.08398C209.527 8.08789 209.654 7.21875 209.908 6.47656C210.162 5.72461 210.509 5.08008 210.948 4.54297C211.388 4.00586 211.905 3.56152 212.501 3.20996C213.106 2.8584 213.756 2.58008 214.449 2.375C215.143 2.16992 215.865 2.02832 216.617 1.9502C217.369 1.8623 218.121 1.81836 218.873 1.81836C219.938 1.81836 220.89 1.87207 221.729 1.97949C222.579 2.08691 223.336 2.22363 224 2.38965C224.674 2.55566 225.265 2.74121 225.772 2.94629C226.29 3.1416 226.749 3.33203 227.149 3.51758V8.64453H222.711C222.34 7.94141 221.915 7.42871 221.437 7.10645C220.958 6.78418 220.47 6.62305 219.972 6.62305C219.806 6.62305 219.615 6.65234 219.4 6.71094C219.186 6.75977 218.985 6.87695 218.8 7.0625C218.614 7.24805 218.458 7.52148 218.331 7.88281C218.204 8.24414 218.141 8.73242 218.141 9.34766C219.752 9.40625 221.163 9.57715 222.374 9.86035C223.595 10.1436 224.615 10.5684 225.436 11.1348C226.256 11.6914 226.871 12.4141 227.281 13.3027C227.691 14.1816 227.896 15.251 227.896 16.5107Z" fill="#0C7ED1"/>
</svg>
