<svg width="26" height="23" viewBox="0 0 26 23" fill="none" xmlns="http://www.w3.org/2000/svg">
<path d="M19.083 0.5C20.626 0.871094 21.7734 1.48145 22.5254 2.33105C23.2871 3.18066 23.668 4.32324 23.668 5.75879C23.668 6.71582 23.5654 7.52148 23.3604 8.17578C23.1553 8.82031 22.8965 9.35742 22.584 9.78711C22.2715 10.207 21.9297 10.5342 21.5586 10.7686C21.1973 10.9932 20.8604 11.1592 20.5479 11.2666C20.2354 11.374 19.9668 11.4375 19.7422 11.457C19.5273 11.4766 19.415 11.4863 19.4053 11.4863C19.7861 11.5059 20.1914 11.5498 20.6211 11.6182C21.0605 11.6865 21.4951 11.7939 21.9248 11.9404C22.3545 12.0869 22.7646 12.2773 23.1553 12.5117C23.5459 12.7461 23.8877 13.0391 24.1807 13.3906C24.4834 13.7324 24.7227 14.1426 24.8984 14.6211C25.0742 15.0996 25.1621 15.6514 25.1621 16.2764C25.1621 17.2334 25.04 18.1221 24.7959 18.9424C24.5615 19.7627 24.1416 20.4756 23.5361 21.0811C22.9404 21.6768 22.125 22.1455 21.0898 22.4873C20.0547 22.8291 18.7461 23 17.1641 23H0.157227V16.6426L2.03223 16.2764V6.68164L0.157227 6.31543V0.5H19.083ZM15.7871 7.70703C15.7871 7.20898 15.6992 6.82812 15.5234 6.56445C15.3574 6.29102 15.1328 6.09082 14.8496 5.96387C14.5664 5.83691 14.2441 5.76367 13.8828 5.74414C13.5215 5.72461 13.1553 5.71484 12.7842 5.71484H11.4072V9.91895H12.7842C13.1553 9.91895 13.5215 9.90918 13.8828 9.88965C14.2441 9.86035 14.5664 9.77734 14.8496 9.64062C15.1328 9.50391 15.3574 9.28906 15.5234 8.99609C15.6992 8.69336 15.7871 8.26367 15.7871 7.70703ZM15.7871 15.0166C15.7871 14.5186 15.6992 14.1377 15.5234 13.874C15.3574 13.6104 15.1328 13.415 14.8496 13.2881C14.5664 13.1611 14.2441 13.0879 13.8828 13.0684C13.5215 13.0488 13.1553 13.0391 12.7842 13.0391H11.4072V17.2432H12.7842C13.1553 17.2432 13.5215 17.2334 13.8828 17.2139C14.2441 17.1846 14.5664 17.1016 14.8496 16.9648C15.1328 16.8281 15.3574 16.6084 15.5234 16.3057C15.6992 16.0029 15.7871 15.5732 15.7871 15.0166Z" fill="#0C7ED1"/>
</svg>
